<svg width="64" height="71" viewBox="0 0 64 71" fill="none" xmlns="http://www.w3.org/2000/svg">
<g clip-path="url(#clip0_1_151)">
<g clip-path="url(#clip1_1_151)">
<path d="M44.9159 62.7767C45.5075 66.4863 49.4823 68.6482 52.9192 67.1234C56.5457 68.2476 60.0169 69.5054 63.6434 70.6296C63.3446 69.4452 63.0459 68.2605 62.7472 67.0762C58.9425 65.9719 55.0727 64.9038 51.2651 63.8013C52.5872 59.1578 50.8752 49.7052 49.7178 46.8858C52.5629 48.4762 53.6918 48.9204 57.8885 49.6637C58.3258 49.7406 58.7333 49.4476 58.8085 49.0207C58.885 48.5886 58.5971 48.1772 58.1655 48.1007C53.4979 47.2741 52.9441 46.8945 48.7395 44.5085C48.5235 44.386 48.2785 44.3868 48.0636 44.4705C47.4147 43.8286 46.6643 43.3665 45.9423 43.4521C44.4453 43.6145 44.1736 45.9809 43.9834 47.6567C42.6976 47.3645 41.5808 47.0943 40.432 46.8178C36.1654 45.7928 34.6155 47.1143 29.6674 43.8976C29.0218 43.478 22.9323 37.4131 19.6724 40.0635C17.0798 42.176 20.4706 46.3383 23.5664 48.6692C24.8586 49.6409 26.3014 50.7532 27.5958 52.2751C27.2352 52.5788 25.7419 53.0584 22.8495 52.2521C20.7182 51.6586 18.4432 51.2662 16.3769 50.5723L4.14694 46.4715C1.1759 45.474 -0.197827 47.0362 0.0229201 48.6878C0.147881 49.6172 0.800192 50.5082 1.44564 51.2101C10.0321 62.9176 26.7958 68.6121 44.9159 62.7767ZM50.318 60.341C50.2765 60.921 49.7787 63.5689 49.551 63.9528C49.0378 63.6867 48.0388 62.5833 47.8424 60.8687C48.673 60.7012 49.4985 60.5255 50.318 60.341ZM46.1759 45.0419C46.6479 45.1688 47.9195 46.2989 48.5916 48.5793C47.6545 48.4299 46.6252 48.2304 45.5708 48.0061C45.5391 47.7886 45.8693 45.4545 46.1759 45.0419ZM3.64249 47.9766L15.8719 52.0774C18.0466 52.8077 20.2548 53.1788 22.4236 53.782C27.5527 55.208 33.1365 53.8836 24.521 47.3998C22.4565 45.8471 19.2608 42.451 20.6342 41.3226C23.6252 39.8939 27.0937 44.1189 28.8022 45.229C34.1249 48.69 36.0219 47.3892 40.0604 48.3622C42.6906 48.9952 46.3249 49.8752 48.983 50.2477C49.0005 50.2503 49.0164 50.2436 49.0337 50.2446C49.6729 52.9824 49.9625 55.8037 50.2241 58.7356C33.2762 62.5972 14.6348 62.9932 2.64391 50.2067C2.04495 49.568 1.66402 48.9782 1.59676 48.477C1.46349 47.4822 2.66853 47.6511 3.64249 47.9766Z" fill="black"/>
<path d="M15.561 0.929425C15.3328 0.651561 14.9011 0.608528 14.7195 0.637916C10.7769 1.31397 6.01302 4.1815 4.95139 8.16235C4.92305 8.2685 4.60194 10.2291 4.59476 10.335C4.57363 10.5572 4.89117 11.0444 5.01819 11.2136C8.66885 15.7592 11.9164 20.3727 15.6535 24.9127C14.9807 25.6855 17.6863 22.5362 11.0508 30.3243C10.927 30.4698 10.8758 30.6473 10.8725 30.8246C10.8716 30.8352 10.8654 30.8437 10.8648 30.8546C10.8265 31.6164 9.92616 38.2839 9.40465 40.434C9.33022 40.7421 9.44548 41.0646 9.69874 41.2558C9.95649 41.4492 10.3009 41.4652 10.5691 41.3106C12.1479 40.4119 17.4921 37.9172 19.042 37.1478C19.1728 37.0832 19.2664 36.9809 19.3411 36.8672C19.3437 36.8643 19.3475 36.8636 19.3501 36.8605C20.2917 35.7624 21.3774 34.4914 22.5529 33.09C25.4279 36.4335 28.306 39.7838 30.9204 43.0966C31.5468 43.8551 32.9597 43.9187 33.9451 43.9187C36.8549 43.9187 41.9223 40.9956 43.9226 36.3136C44.3323 35.3607 43.8897 35.2941 43.781 35.0442C42.0905 32.9806 32.5314 21.4353 32.4411 21.3262C42.1938 9.77022 38.83 13.7559 39.5577 12.8937C41.2677 10.8954 40.1226 7.40681 38.0082 6.00912C36.4691 4.94841 33.2208 4.27838 31.8627 5.82822C31.7697 5.93761 25.2351 13.6256 25.6455 13.1428C21.6381 8.30087 18.3289 4.30523 15.561 0.929425ZM14.616 2.2792C15.6888 3.58685 16.7838 4.90666 17.868 6.22C17.8605 6.22569 17.8512 6.22723 17.8439 6.23343L15.4953 8.26262C15.163 8.54896 15.1263 9.05033 15.4126 9.38214C15.6998 9.71466 16.2026 9.75021 16.5321 9.46381L18.8756 7.44082C19.7333 8.47867 20.5806 9.51033 21.4422 10.5508L19.1097 12.5526C18.7769 12.8379 18.7386 13.3392 19.0239 13.6721C19.3086 14.0036 19.8085 14.0443 20.1434 13.7579L22.4541 11.7757L24.601 14.3706C24.5875 14.3884 24.5721 14.4047 24.56 14.4236L17.9327 22.239C9.93278 12.3798 7.37403 9.28001 6.57484 8.30139C7.46804 5.60364 10.8854 3.04338 14.616 2.2792ZM15.0353 37.3138C14.8891 36.9609 12.749 35.245 11.9108 35.19C12.0687 34.1004 12.2078 33.0711 12.3057 32.2837C12.774 32.2785 13.2397 32.293 13.6016 32.4579C13.8832 32.586 14.0983 32.8672 14.0626 33.0595C13.9665 33.5778 14.3944 34.0356 14.8859 33.9981C15.9749 33.9319 17.0548 34.5815 17.3584 36.201C16.5305 36.5992 15.9316 36.8843 15.0353 37.3138ZM36.0111 28.1333L33.8273 29.9046C33.4867 30.1806 33.435 30.6809 33.711 31.021C33.9856 31.3588 34.4856 31.4154 34.8279 31.1368L37.0225 29.3567C38.1694 30.7434 39.3192 32.132 40.462 33.5179L37.6159 35.7378C37.2701 36.0076 37.2086 36.5069 37.4784 36.8522C37.75 37.2 38.2477 37.2584 38.5927 36.9907L41.4743 34.7429C41.7797 35.1104 42.0824 35.4779 42.3835 35.8454C40.9127 39.1315 37.758 41.5954 34.2209 42.2547C30.9601 38.2802 28.6628 35.4649 24.6888 30.5605C25.2513 29.8931 27.5479 27.1415 31.4209 22.584L32.4181 23.7883C32.1291 23.9269 32.5975 23.6187 29.5126 26.177C29.1766 26.4581 29.1327 26.9595 29.4144 27.2955C29.6971 27.6321 30.1992 27.6739 30.5328 27.3926C33.6153 24.7726 33.1936 25.2095 33.3814 24.952C34.2611 26.0144 35.1335 27.0727 36.0111 28.1333ZM18.7364 35.1362C18.4106 34.1262 17.7309 33.2832 16.6958 32.793C17.7039 31.6195 17.1075 32.3055 34.0751 12.4823C35.4035 13.3483 35.7027 13.3291 36.6344 13.8907C34.4222 16.4865 21.5861 31.8049 18.7364 35.1362ZM30.8745 9.43332C31.5257 10.2453 32.1257 10.9244 32.8071 11.5217C30.0966 14.6851 15.4209 31.8417 15.3283 31.9493C14.7621 31.0546 13.8626 30.7533 12.8107 30.7065C18.8383 23.6359 22.6222 19.1639 30.8745 9.43332Z" fill="black"/>
</g>
</g>
<defs>
<clipPath id="clip0_1_151">
<rect width="64" height="70" fill="white" transform="translate(0 0.630005)"/>
</clipPath>
<clipPath id="clip1_1_151">
<rect width="64" height="70" fill="white" transform="translate(0 0.630005)"/>
</clipPath>
</defs>
</svg>
